<?xml version="1.0" encoding="UTF-8"?>
<svg width="135px" height="37px" viewBox="0 0 135 37" version="1.1" xmlns="http://www.w3.org/2000/svg" xmlns:xlink="http://www.w3.org/1999/xlink">
    <!-- Generator: Sketch 40.1 (33804) - http://www.bohemiancoding.com/sketch -->
    <title>Group</title>
    <desc>Created with Sketch.</desc>
    <defs></defs>
    <g id="Page-1" stroke="none" stroke-width="1" fill="none" fill-rule="evenodd">
        <g id="Group-2" transform="translate(-192.000000, -495.000000)">
            <g id="Group" transform="translate(191.000000, 495.000000)">
                <path d="M78.5402183,23.0588521 C78.0443502,23.6153728 77.548538,24.2086866 77.0873095,24.8120435 C76.6629823,25.367128 76.289614,25.9030129 75.9816301,26.4073313 C75.3965757,27.3653478 75.081924,28.1596302 75.081924,28.6772341 C75.081924,29.1958136 75.3530121,29.9350086 75.8641299,30.8126147 C76.1902856,31.3726348 76.6025146,31.9709628 77.0805777,32.59076 C77.5397613,33.1860804 78.0334377,33.767947 78.5271477,34.3110687 C78.8226282,34.6361216 79.0509406,34.8744728 79.1939115,35.0181875 C79.3390303,35.1723613 79.7287992,35.3409866 79.9420374,35.3409866 L129.947573,35.3409866 C130.160505,35.3409866 130.535282,35.1777064 130.691994,35.0099954 C130.815577,34.8835311 131.037819,34.6464214 131.325511,34.3227659 C131.806289,33.7818877 132.28705,33.2019179 132.734231,32.60789 C133.209837,31.9761017 133.618413,31.3661379 133.939101,30.7956714 C134.425455,29.9305055 134.683039,29.1990906 134.683039,28.6772341 C134.683039,28.1573718 134.370669,27.3555221 133.79129,26.3867313 C133.494637,25.8906926 133.136893,25.364051 132.731398,24.8185846 C132.282885,24.2152505 131.800764,23.6214704 131.318595,23.0641431 C131.029921,22.7304719 130.806718,22.4845501 130.668108,22.3370492 C130.530728,22.1832467 130.153187,22.0134816 129.947573,22.0134816 L79.9420374,22.0134816 C79.7298313,22.0134816 79.3530239,22.1786885 79.2060182,22.3365056 C79.0666584,22.4802085 78.8371039,22.7256527 78.5402183,23.0588521 Z M79.9420374,21.2281413 L129.947573,21.2281413 C130.372067,21.2281413 130.957807,21.4918885 131.24166,21.8096759 C131.24166,21.8096759 135.457079,26.2831651 135.457079,28.6772341 C135.457079,31.2492269 131.24166,35.5629343 131.24166,35.5629343 C130.951449,35.8740875 130.373419,36.126327 129.947573,36.126327 L79.9420374,36.126327 C79.5175432,36.126327 78.9254508,35.870077 78.6341347,35.5605837 C78.6341347,35.5605837 74.3078835,31.2261743 74.3078835,28.6772341 C74.3078835,26.2601124 78.6434626,21.797077 78.6434626,21.797077 C78.9361515,21.4828625 79.5161913,21.2281413 79.9420374,21.2281413 Z" id="Rectangle-2" fill="#FF0000"></path>
                <path d="M78.890203,30.4574497 C79.0708134,30.651168 79.2836724,30.8069256 79.5287864,30.9247272 C79.7739004,31.0425289 80.0280412,31.1014288 80.2912162,31.1014288 C80.6266354,31.1014288 80.8872265,31.0242044 81.0729971,30.8697534 C81.2587677,30.7153024 81.3516517,30.5124248 81.3516517,30.2611147 C81.3516517,30.130224 81.3297207,30.0189685 81.2858582,29.927345 C81.2419957,29.8357215 81.1826532,29.7571883 81.1078289,29.6917429 C81.0330046,29.6262976 80.9439909,29.5673976 80.840785,29.5150414 C80.7375791,29.4626851 80.6266344,29.4077118 80.5079476,29.3501199 L79.7803495,29.0281304 C79.6616627,28.9757741 79.5403976,28.9129475 79.4165505,28.8396487 C79.2927034,28.7663499 79.1817587,28.6773456 79.0837131,28.572633 C78.9856675,28.4679204 78.9056841,28.3435761 78.8437606,28.1995963 C78.781837,28.0556166 78.7508757,27.8893879 78.7508757,27.7009052 C78.7508757,27.507187 78.7908674,27.3265605 78.870852,27.1590204 C78.9508366,26.9914803 79.0617813,26.8461938 79.2036894,26.7231565 C79.3455975,26.6001193 79.5133046,26.5045705 79.7068157,26.4365073 C79.9003268,26.3684442 80.1131858,26.3344131 80.3453991,26.3344131 C80.6498565,26.3344131 80.9310884,26.393313 81.1891032,26.5111147 C81.4471179,26.6289163 81.6664272,26.7820561 81.8470376,26.9705387 L81.4987193,27.3946225 C81.3439105,27.2427893 81.1723332,27.1236805 80.9839824,27.0372927 C80.7956317,26.9509048 80.5827727,26.9077115 80.3453991,26.9077115 C80.0615828,26.9077115 79.8332432,26.9744648 79.6603733,27.1079733 C79.4875034,27.2414818 79.4010697,27.426035 79.4010697,27.6616382 C79.4010697,27.7872933 79.4255808,27.8933132 79.4746036,27.9797011 C79.5236264,28.0660889 79.5894192,28.1420044 79.6719839,28.2074497 C79.7545486,28.2728951 79.8448524,28.3304861 79.942898,28.3802246 C80.0409437,28.4299631 80.1415679,28.4757741 80.2447738,28.5176592 L80.9646314,28.8317953 C81.1091197,28.8946228 81.2458655,28.9666116 81.3748729,29.0477639 C81.5038803,29.1289161 81.614825,29.223156 81.7077103,29.3304864 C81.8005956,29.4378168 81.8741287,29.56347 81.9283118,29.7074497 C81.9824949,29.8514295 82.009586,30.0176582 82.009586,30.2061408 C82.009586,30.4103303 81.9695944,30.6014279 81.8896098,30.7794393 C81.8096252,30.9574506 81.6948103,31.1132082 81.5451618,31.2467168 C81.3955132,31.3802253 81.2149056,31.4849363 81.0033335,31.5608529 C80.7917613,31.6367695 80.5518112,31.6747272 80.2834758,31.6747272 C79.9274154,31.6747272 79.5971615,31.6066651 79.2927041,31.4705387 C78.9882466,31.3344124 78.7250755,31.1485504 78.5031828,30.9129471 L78.890203,30.4574497 Z M85.1521903,29.4836278 L84.9122377,28.6982874 C84.8193524,28.4103279 84.7316287,28.1236815 84.649064,27.8383398 C84.5664993,27.5529981 84.4839358,27.2611162 84.4013711,26.9626853 L84.3704094,26.9626853 C84.293005,27.2611162 84.2130216,27.5529981 84.1304569,27.8383398 C84.0478922,28.1236815 83.9601685,28.4103279 83.8672831,28.6982874 L83.6273306,29.4836278 L85.1521903,29.4836278 Z M85.3147388,30.0098058 L83.4647821,30.0098058 L82.9771366,31.5804864 L82.3192022,31.5804864 L84.037572,26.4286539 L84.7651701,26.4286539 L86.4835399,31.5804864 L85.7946439,31.5804864 L85.3147388,30.0098058 Z M87.1879167,26.4286539 L90.1137896,26.4286539 L90.1137896,26.9783922 L87.8303703,26.9783922 L87.8303703,28.7218476 L89.7654714,28.7218476 L89.7654714,29.2715859 L87.8303703,29.2715859 L87.8303703,31.5804864 L87.1879167,31.5804864 L87.1879167,26.4286539 Z M90.9961957,26.4286539 L93.9220686,26.4286539 L93.9220686,26.9783922 L91.6386493,26.9783922 L91.6386493,28.5961932 L93.56601,28.5961932 L93.56601,29.1537848 L91.6386493,29.1537848 L91.6386493,31.0228948 L93.9994727,31.0228948 L93.9994727,31.5804864 L90.9961957,31.5804864 L90.9961957,26.4286539 Z M96.1126031,26.9783922 L94.580003,26.9783922 L94.580003,26.4286539 L98.2953972,26.4286539 L98.2953972,26.9783922 L96.7627971,26.9783922 L96.7627971,31.5804864 L96.1126031,31.5804864 L96.1126031,26.9783922 Z M99.9054013,29.585722 L98.3805416,26.4286539 L99.0694376,26.4286539 L99.727372,27.8815335 C99.8099368,28.0700161 99.8899201,28.2558781 99.9673246,28.4391251 C100.044729,28.6223721 100.127292,28.8108519 100.215018,29.0045702 L100.245979,29.0045702 C100.333704,28.8108519 100.421428,28.6223721 100.509153,28.4391251 C100.596878,28.2558781 100.679441,28.0700161 100.756846,27.8815335 L101.40704,26.4286539 L102.080455,26.4286539 L100.555595,29.585722 L100.555595,31.5804864 L99.9054013,31.5804864 L99.9054013,29.585722 Z M104.301951,26.4286539 L107.227824,26.4286539 L107.227824,26.9783922 L104.944405,26.9783922 L104.944405,28.7218476 L106.879506,28.7218476 L106.879506,29.2715859 L104.944405,29.2715859 L104.944405,31.5804864 L104.301951,31.5804864 L104.301951,26.4286539 Z M109.906004,31.6747272 C109.586066,31.6747272 109.293223,31.6119006 109.027468,31.4862456 C108.761713,31.3605905 108.533373,31.1812729 108.342442,30.9482874 C108.151511,30.715302 108.003155,30.4325823 107.897369,30.1001199 C107.791583,29.7676575 107.738691,29.3946246 107.738691,28.98101 C107.738691,28.5673953 107.791583,28.1969802 107.897369,27.8697534 C108.003155,27.5425266 108.151511,27.2650425 108.342442,27.0372927 C108.533373,26.8095428 108.761713,26.6354608 109.027468,26.5150414 C109.293223,26.3946219 109.586066,26.3344131 109.906004,26.3344131 C110.225942,26.3344131 110.518785,26.3959308 110.78454,26.5189681 C111.050295,26.6420053 111.279925,26.8173962 111.473436,27.0451461 C111.666947,27.2728959 111.816593,27.55038 111.922379,27.8776068 C112.028165,28.2048336 112.081058,28.5726309 112.081058,28.98101 C112.081058,29.3946246 112.028165,29.7676575 111.922379,30.1001199 C111.816593,30.4325823 111.666947,30.715302 111.473436,30.9482874 C111.279925,31.1812729 111.050295,31.3605905 110.78454,31.4862456 C110.518785,31.6119006 110.225942,31.6747272 109.906004,31.6747272 L109.906004,31.6747272 Z M109.906004,31.1014288 C110.133057,31.1014288 110.338176,31.0516911 110.521366,30.9522141 C110.704557,30.8527372 110.861943,30.7100685 110.993531,30.5242037 C111.125118,30.3383389 111.227033,30.115828 111.299277,29.8566644 C111.371521,29.5975008 111.407642,29.3056189 111.407642,28.98101 C111.407642,28.6616366 111.371521,28.3736814 111.299277,28.1171356 C111.227033,27.8605898 111.125118,27.6433145 110.993531,27.4653031 C110.861943,27.2872918 110.704557,27.1498586 110.521366,27.0529995 C110.338176,26.9561404 110.133057,26.9077115 109.906004,26.9077115 C109.678951,26.9077115 109.473832,26.9561404 109.290642,27.0529995 C109.107451,27.1498586 108.950065,27.2872918 108.818477,27.4653031 C108.68689,27.6433145 108.584975,27.8605898 108.512731,28.1171356 C108.440487,28.3736814 108.404366,28.6616366 108.404366,28.98101 C108.404366,29.3056189 108.440487,29.5975008 108.512731,29.8566644 C108.584975,30.115828 108.68689,30.3383389 108.818477,30.5242037 C108.950065,30.7100685 109.107451,30.8527372 109.290642,30.9522141 C109.473832,31.0516911 109.678951,31.1014288 109.906004,31.1014288 L109.906004,31.1014288 Z M113.799427,28.8710623 L114.650872,28.8710623 C115.048215,28.8710623 115.352668,28.7886024 115.56424,28.6236801 C115.775812,28.4587578 115.881596,28.2087603 115.881596,27.8736801 C115.881596,27.5333643 115.775812,27.2951468 115.56424,27.1590204 C115.352668,27.0228941 115.048215,26.9548319 114.650872,26.9548319 L113.799427,26.9548319 L113.799427,28.8710623 Z M115.94352,31.5804864 L114.720536,29.4050937 L113.799427,29.4050937 L113.799427,31.5804864 L113.156974,31.5804864 L113.156974,26.4286539 L114.743757,26.4286539 C115.001772,26.4286539 115.240432,26.4535228 115.459744,26.5032613 C115.679057,26.5529997 115.867405,26.6354596 116.024794,26.7506435 C116.182183,26.8658273 116.304738,27.0150405 116.392463,27.1982874 C116.480188,27.3815344 116.52405,27.6066631 116.52405,27.8736801 C116.52405,28.2768235 116.420846,28.5988098 116.214434,28.8396487 C116.008022,29.0804876 115.73195,29.2454074 115.38621,29.3344131 L116.671118,31.5804864 L115.94352,31.5804864 Z M121.346322,29.4836278 L121.106369,28.6982874 C121.013484,28.4103279 120.92576,28.1236815 120.843196,27.8383398 C120.760631,27.5529981 120.678067,27.2611162 120.595503,26.9626853 L120.564541,26.9626853 C120.487137,27.2611162 120.407153,27.5529981 120.324589,27.8383398 C120.242024,28.1236815 120.1543,28.4103279 120.061415,28.6982874 L119.821462,29.4836278 L121.346322,29.4836278 Z M121.50887,30.0098058 L119.658914,30.0098058 L119.171268,31.5804864 L118.513334,31.5804864 L120.231704,26.4286539 L120.959302,26.4286539 L122.677671,31.5804864 L121.988775,31.5804864 L121.50887,30.0098058 Z M123.382048,26.4286539 L124.024502,26.4286539 L124.024502,31.0228948 L126.245998,31.0228948 L126.245998,31.5804864 L123.382048,31.5804864 L123.382048,26.4286539 Z M127.128404,26.4286539 L127.770858,26.4286539 L127.770858,31.0228948 L129.992354,31.0228948 L129.992354,31.5804864 L127.128404,31.5804864 L127.128404,26.4286539 Z" id="SAFETY-FOR-ALL" fill="#FF0000"></path>
                <path d="M2.08990922,0.544502618 L6.75737316,0.544502618 C7.59334103,0.544502618 8.35963341,0.623035864 9.05627331,0.780104712 C9.7529132,0.93717356 10.3450482,1.19240661 10.8326961,1.54581152 C11.3203441,1.89921643 11.6996201,2.36648924 11.9705356,2.94764398 C12.2414511,3.52879872 12.3769069,4.24345126 12.3769069,5.09162304 C12.3769069,5.90838105 12.2414511,6.61518026 11.9705356,7.21204188 C11.6996201,7.80890351 11.3164739,8.30366296 10.8210855,8.69633508 C10.3256972,9.0890072 9.73356215,9.38350687 9.0446627,9.57984293 C8.35576325,9.77617899 7.59334103,9.87434555 6.75737316,9.87434555 L4.01726995,9.87434555 L4.01726995,16 L2.08990922,16 L2.08990922,0.544502618 Z M6.52516102,8.27225131 C7.85651726,8.27225131 8.84340897,8.01701826 9.48586576,7.5065445 C10.1283225,6.99607075 10.4495461,6.19110497 10.4495461,5.09162304 C10.4495461,3.97643421 10.1244524,3.20288174 9.47425515,2.77094241 C8.82405792,2.33900308 7.84103637,2.12303665 6.52516102,2.12303665 L4.01726995,2.12303665 L4.01726995,8.27225131 L6.52516102,8.27225131 Z M17.3462466,7.87172775 L19.9005801,7.87172775 C21.0926083,7.87172775 22.0059669,7.62434802 22.6406833,7.12958115 C23.2753996,6.63481428 23.592753,5.88482178 23.592753,4.87958115 C23.592753,3.85863364 23.2753996,3.1439811 22.6406833,2.73560209 C22.0059669,2.32722309 21.0926083,2.12303665 19.9005801,2.12303665 L17.3462466,2.12303665 L17.3462466,7.87172775 Z M23.7785227,16 L20.109571,9.47382199 L17.3462466,9.47382199 L17.3462466,16 L15.4188858,16 L15.4188858,0.544502618 L20.1792346,0.544502618 C20.953279,0.544502618 21.6692592,0.619109202 22.3271969,0.768324607 C22.9851346,0.917540013 23.5501784,1.16491974 24.0223455,1.5104712 C24.4945125,1.85602267 24.8621781,2.30366217 25.1253531,2.85340314 C25.3885282,3.40314411 25.5201138,4.07853003 25.5201138,4.87958115 C25.5201138,6.08901128 25.2105007,7.05497021 24.5912652,7.77748691 C23.9720298,8.50000361 23.1438147,8.99476306 22.1065954,9.2617801 L25.9613168,16 L23.7785227,16 Z M34.4835022,16.2827225 C33.5236873,16.2827225 32.6451601,16.0942427 31.8478945,15.7172775 C31.0506288,15.3403123 30.3656099,14.8023595 29.7928171,14.1034031 C29.2200243,13.4044468 28.7749555,12.5562877 28.4575973,11.5589005 C28.1402391,10.5615133 27.9815624,9.44241458 27.9815624,8.20157068 C27.9815624,6.96072678 28.1402391,5.84948135 28.4575973,4.86780105 C28.7749555,3.88612075 29.2200243,3.05366834 29.7928171,2.37041885 C30.3656099,1.68716936 31.0506288,1.16492327 31.8478945,0.803664921 C32.6451601,0.442406571 33.5236873,0.261780105 34.4835022,0.261780105 C35.4433172,0.261780105 36.3218443,0.446333233 37.11911,0.815445026 C37.9163756,1.18455682 38.6052647,1.71072957 39.185798,2.39397906 C39.7663312,3.07722855 40.2152702,3.90968096 40.5326284,4.89136126 C40.8499865,5.87304156 41.0086632,6.97643366 41.0086632,8.20157068 C41.0086632,9.44241458 40.8499865,10.5615133 40.5326284,11.5589005 C40.2152702,12.5562877 39.7663312,13.4044468 39.185798,14.1034031 C38.6052647,14.8023595 37.9163756,15.3403123 37.11911,15.7172775 C36.3218443,16.0942427 35.4433172,16.2827225 34.4835022,16.2827225 L34.4835022,16.2827225 Z M34.4835022,14.5628272 C35.1646612,14.5628272 35.7800172,14.4136141 36.3295887,14.1151832 C36.8791602,13.8167524 37.3513201,13.3887462 37.7460827,12.8311518 C38.1408453,12.2735574 38.4465882,11.6060248 38.6633207,10.828534 C38.8800531,10.0510432 38.9884177,9.17539754 38.9884177,8.20157068 C38.9884177,7.24345071 38.8800531,6.379585 38.6633207,5.60994764 C38.4465882,4.84031029 38.1408453,4.18848435 37.7460827,3.65445026 C37.3513201,3.12041618 36.8791602,2.70811664 36.3295887,2.41753927 C35.7800172,2.1269619 35.1646612,1.98167539 34.4835022,1.98167539 C33.8023432,1.98167539 33.1869872,2.1269619 32.6374157,2.41753927 C32.0878443,2.70811664 31.6156843,3.12041618 31.2209217,3.65445026 C30.8261591,4.18848435 30.5204162,4.84031029 30.3036838,5.60994764 C30.0869514,6.379585 29.9785868,7.24345071 29.9785868,8.20157068 C29.9785868,9.17539754 30.0869514,10.0510432 30.3036838,10.828534 C30.5204162,11.6060248 30.8261591,12.2735574 31.2209217,12.8311518 C31.6156843,13.3887462 32.0878443,13.8167524 32.6374157,14.1151832 C33.1869872,14.4136141 33.8023432,14.5628272 34.4835022,14.5628272 L34.4835022,14.5628272 Z M43.3540058,8.27225131 C43.3540058,7.03140741 43.5281632,5.91623531 43.8764831,4.92670157 C44.2248031,3.93716783 44.7124437,3.09686209 45.3394196,2.40575916 C45.9663955,1.71465623 46.7055967,1.18455682 47.5570455,0.815445026 C48.4084942,0.446333233 49.3450738,0.261780105 50.3668123,0.261780105 C51.4195126,0.261780105 52.2980397,0.462039882 53.0024201,0.862565445 C53.7068004,1.26309101 54.2834548,1.69895052 54.7324005,2.17015707 L53.6410034,3.41884817 C53.2539813,3.01046916 52.8089125,2.66884954 52.3057837,2.39397906 C51.8026548,2.11910857 51.1640779,1.98167539 50.3900335,1.98167539 C49.6159892,1.98167539 48.9193598,2.1269619 48.3001243,2.41753927 C47.6808889,2.70811664 47.1545466,3.12434284 46.7210818,3.66623037 C46.287617,4.20811789 45.9509127,4.8638705 45.710959,5.63350785 C45.4710053,6.40314521 45.3510302,7.26701092 45.3510302,8.22513089 C45.3510302,9.19895775 45.4632649,10.0746034 45.6877378,10.8520942 C45.9122106,11.629585 46.2373044,12.293191 46.6630288,12.8429319 C47.0887531,13.3926729 47.6150954,13.8167524 48.2420713,14.1151832 C48.8690472,14.4136141 49.5927678,14.5628272 50.4132547,14.5628272 C50.9550858,14.5628272 51.4698175,14.4803673 51.9574655,14.315445 C52.4451134,14.1505227 52.8437402,13.926703 53.153358,13.6439791 L53.153358,9.61518325 L49.9256093,9.61518325 L49.9256093,7.9895288 L54.9181702,7.9895288 L54.9181702,14.4921466 C54.4227818,15.0104738 53.7687242,15.43848 52.9559776,15.776178 C52.1432311,16.113876 51.2260023,16.2827225 50.2042638,16.2827225 C49.1980062,16.2827225 48.2769073,16.102096 47.4409394,15.7408377 C46.6049715,15.3795793 45.8851211,14.8573333 45.2813665,14.1740838 C44.677612,13.4908343 44.205452,12.6505285 43.8648725,11.6531414 C43.524293,10.6557542 43.3540058,9.52880209 43.3540058,8.27225131 L43.3540058,8.27225131 Z M60.444819,7.87172775 L62.9991525,7.87172775 C64.1911808,7.87172775 65.1045394,7.62434802 65.7392557,7.12958115 C66.3739721,6.63481428 66.6913255,5.88482178 66.6913255,4.87958115 C66.6913255,3.85863364 66.3739721,3.1439811 65.7392557,2.73560209 C65.1045394,2.32722309 64.1911808,2.12303665 62.9991525,2.12303665 L60.444819,2.12303665 L60.444819,7.87172775 Z M66.8770952,16 L63.2081434,9.47382199 L60.444819,9.47382199 L60.444819,16 L58.5174583,16 L58.5174583,0.544502618 L63.2778071,0.544502618 C64.0518514,0.544502618 64.7678317,0.619109202 65.4257693,0.768324607 C66.083707,0.917540013 66.6487509,1.16491974 67.1209179,1.5104712 C67.593085,1.85602267 67.9607505,2.30366217 68.2239256,2.85340314 C68.4871007,3.40314411 68.6186862,4.07853003 68.6186862,4.87958115 C68.6186862,6.08901128 68.3090731,7.05497021 67.6898377,7.77748691 C67.0706022,8.50000361 66.2423872,8.99476306 65.2051678,9.2617801 L69.0598893,16 L66.8770952,16 Z M71.962541,0.544502618 L80.7401597,0.544502618 L80.7401597,2.19371728 L73.8899017,2.19371728 L73.8899017,7.04712042 L79.6719839,7.04712042 L79.6719839,8.71989529 L73.8899017,8.71989529 L73.8899017,14.3272251 L80.9723719,14.3272251 L80.9723719,16 L71.962541,16 L71.962541,0.544502618 Z M84.2001206,12.6308901 C84.7419516,13.2120448 85.3805286,13.6793176 86.1158707,14.0327225 C86.8512128,14.3861274 87.613635,14.5628272 88.4031602,14.5628272 C89.4094178,14.5628272 90.1911909,14.3311541 90.7485028,13.867801 C91.3058147,13.4044479 91.5844665,12.7958153 91.5844665,12.0418848 C91.5844665,11.6492127 91.5186737,11.3154464 91.3870862,11.0405759 C91.2554986,10.7657054 91.0774711,10.5301057 90.8529983,10.3337696 C90.6285254,10.1374336 90.3614841,9.96073377 90.0518664,9.80366492 C89.7422487,9.64659607 89.4094146,9.48167626 89.0533542,9.30890052 L86.8705601,8.34293194 C86.5144997,8.18586309 86.1507044,7.9973833 85.7791631,7.77748691 C85.4076218,7.55759052 85.0747877,7.29057749 84.7806509,6.97643979 C84.4865141,6.66230209 84.2465639,6.28926918 84.0607933,5.85732984 C83.8750226,5.42539051 83.7821387,4.9267044 83.7821387,4.36125654 C83.7821387,3.78010181 83.9021138,3.23822241 84.1420675,2.73560209 C84.3820213,2.23298178 84.7148553,1.79712226 85.1405797,1.42801047 C85.5663041,1.05889868 86.0694253,0.77225233 86.6499586,0.568062827 C87.2304918,0.363873325 87.8690688,0.261780105 88.5657087,0.261780105 C89.479081,0.261780105 90.3227767,0.438479908 91.096821,0.791884817 C91.8708653,1.14528973 92.5287931,1.60470921 93.0706242,2.17015707 L92.0256695,3.44240838 C91.5612429,2.98690872 91.0465112,2.62958245 90.4814588,2.37041885 C89.9164065,2.11125525 89.2778295,1.98167539 88.5657087,1.98167539 C87.71426,1.98167539 87.029241,2.18193517 86.5106313,2.58246073 C85.9920216,2.9829863 85.7327207,3.53664568 85.7327207,4.2434555 C85.7327207,4.62042073 85.8062538,4.93848038 85.9533222,5.19764398 C86.1003906,5.45680758 86.2977689,5.68455399 86.5454631,5.88089005 C86.7931573,6.07722611 87.0640688,6.24999925 87.3582056,6.39921466 C87.6523424,6.54843007 87.9542152,6.68586325 88.2638329,6.81151832 L90.4234058,7.7539267 C90.8568706,7.94240932 91.267108,8.15837575 91.6541301,8.40183246 C92.0411523,8.64528918 92.3739864,8.92800886 92.6526423,9.25 C92.9312983,9.57199114 93.1518976,9.94895072 93.3144469,10.3808901 C93.4769962,10.8128294 93.5582696,11.3115155 93.5582696,11.8769634 C93.5582696,12.4895319 93.4382946,13.0628246 93.1983408,13.5968586 C92.9583871,14.1308927 92.6139425,14.5981655 92.1649968,14.9986911 C91.7160511,15.3992167 91.1742282,15.7133496 90.5395119,15.9410995 C89.9047955,16.1688493 89.1849451,16.2827225 88.379939,16.2827225 C87.3117578,16.2827225 86.320996,16.0785361 85.4076237,15.6701571 C84.4942514,15.2617781 83.704738,14.704192 83.0390599,13.9973822 L84.2001206,12.6308901 Z M96.2287092,12.6308901 C96.7705402,13.2120448 97.4091172,13.6793176 98.1444593,14.0327225 C98.8798014,14.3861274 99.6422237,14.5628272 100.431749,14.5628272 C101.438006,14.5628272 102.21978,14.3311541 102.777091,13.867801 C103.334403,13.4044479 103.613055,12.7958153 103.613055,12.0418848 C103.613055,11.6492127 103.547262,11.3154464 103.415675,11.0405759 C103.284087,10.7657054 103.10606,10.5301057 102.881587,10.3337696 C102.657114,10.1374336 102.390073,9.96073377 102.080455,9.80366492 C101.770837,9.64659607 101.438003,9.48167626 101.081943,9.30890052 L98.8991488,8.34293194 C98.5430884,8.18586309 98.179293,7.9973833 97.8077517,7.77748691 C97.4362105,7.55759052 97.1033764,7.29057749 96.8092395,6.97643979 C96.5151027,6.66230209 96.2751526,6.28926918 96.0893819,5.85732984 C95.9036113,5.42539051 95.8107274,4.9267044 95.8107274,4.36125654 C95.8107274,3.78010181 95.9307024,3.23822241 96.1706562,2.73560209 C96.4106099,2.23298178 96.743444,1.79712226 97.1691684,1.42801047 C97.5948927,1.05889868 98.098014,0.77225233 98.6785472,0.568062827 C99.2590805,0.363873325 99.8976575,0.261780105 100.594297,0.261780105 C101.50767,0.261780105 102.351365,0.438479908 103.12541,0.791884817 C103.899454,1.14528973 104.557382,1.60470921 105.099213,2.17015707 L104.054258,3.44240838 C103.589832,2.98690872 103.0751,2.62958245 102.510047,2.37041885 C101.944995,2.11125525 101.306418,1.98167539 100.594297,1.98167539 C99.7428486,1.98167539 99.0578297,2.18193517 98.53922,2.58246073 C98.0206103,2.9829863 97.7613093,3.53664568 97.7613093,4.2434555 C97.7613093,4.62042073 97.8348424,4.93848038 97.9819108,5.19764398 C98.1289793,5.45680758 98.3263576,5.68455399 98.5740518,5.88089005 C98.821746,6.07722611 99.0926574,6.24999925 99.3867943,6.39921466 C99.6809311,6.54843007 99.9828039,6.68586325 100.292422,6.81151832 L102.451994,7.7539267 C102.885459,7.94240932 103.295697,8.15837575 103.682719,8.40183246 C104.069741,8.64528918 104.402575,8.92800886 104.681231,9.25 C104.959887,9.57199114 105.180486,9.94895072 105.343036,10.3808901 C105.505585,10.8128294 105.586858,11.3115155 105.586858,11.8769634 C105.586858,12.4895319 105.466883,13.0628246 105.226929,13.5968586 C104.986976,14.1308927 104.642531,14.5981655 104.193585,14.9986911 C103.74464,15.3992167 103.202817,15.7133496 102.568101,15.9410995 C101.933384,16.1688493 101.213534,16.2827225 100.408528,16.2827225 C99.3403465,16.2827225 98.3495846,16.0785361 97.4362123,15.6701571 C96.52284,15.2617781 95.7333266,14.704192 95.0676485,13.9973822 L96.2287092,12.6308901 Z M108.535952,0.544502618 L110.463313,0.544502618 L110.463313,16 L108.535952,16 L108.535952,0.544502618 Z M112.50678,0.544502618 L114.573468,0.544502618 L117.011695,8.88481675 C117.290351,9.81152296 117.534172,10.6675353 117.743164,11.4528796 C117.952156,12.2382238 118.203716,13.0863829 118.497853,13.9973822 L118.590738,13.9973822 C118.869394,13.0863829 119.117084,12.2382238 119.333817,11.4528796 C119.550549,10.6675353 119.790499,9.81152296 120.053674,8.88481675 L122.491902,0.544502618 L124.465705,0.544502618 L119.635693,16 L117.383235,16 L112.50678,0.544502618 Z M126.509172,0.544502618 L135.286791,0.544502618 L135.286791,2.19371728 L128.436532,2.19371728 L128.436532,7.04712042 L134.218615,7.04712042 L134.218615,8.71989529 L128.436532,8.71989529 L128.436532,14.3272251 L135.519003,14.3272251 L135.519003,16 L126.509172,16 L126.509172,0.544502618 Z" id="PROGRESSIVE" fill="#FF0000"></path>
                <path d="M2.13635165,32.2337659 C2.67818268,32.8149207 3.31675967,33.2821935 4.05210177,33.6355984 C4.78744388,33.9890033 5.5498661,34.1657031 6.33939131,34.1657031 C7.34564893,34.1657031 8.12742198,33.93403 8.68473389,33.4706769 C9.2420458,33.0073238 9.52069758,32.3986912 9.52069758,31.6447607 C9.52069758,31.2520886 9.4549048,30.9183223 9.32331726,30.6434518 C9.19172973,30.3685813 9.0137022,30.1329816 8.78922935,29.9366455 C8.5647565,29.7403095 8.29771521,29.5636097 7.98809748,29.4065408 C7.67847975,29.249472 7.34564568,29.0845521 6.9895853,28.9117764 L4.80679122,27.9458078 C4.45073083,27.788739 4.08693545,27.6002592 3.71539418,27.3803628 C3.3438529,27.1604664 3.01101883,26.8934534 2.71688199,26.5793157 C2.42274515,26.265178 2.18279501,25.8921451 1.99702437,25.4602057 C1.81125373,25.0282664 1.71836981,24.5295803 1.71836981,23.9641324 C1.71836981,23.3829777 1.83834488,22.8410983 2.07829862,22.338478 C2.31825236,21.8358577 2.65108642,21.3999982 3.0768108,21.0308864 C3.50253518,20.6617746 4.00565644,20.3751282 4.58618969,20.1709387 C5.16672293,19.9667492 5.80529992,19.864656 6.50193981,19.864656 C7.41531211,19.864656 8.25900777,20.0413558 9.03305209,20.3947607 C9.80709642,20.7481656 10.4650242,21.2075851 11.0068552,21.773033 L9.96190064,23.0452843 C9.49747404,22.5897846 8.98274229,22.2324583 8.41768993,21.9732947 C7.85263758,21.7141311 7.21406059,21.5845513 6.50193981,21.5845513 C5.65049105,21.5845513 4.9654721,21.7848111 4.44686241,22.1853366 C3.92825271,22.5858622 3.66895175,23.1395216 3.66895175,23.8463314 C3.66895175,24.2232966 3.74248486,24.5413563 3.88955328,24.8005199 C4.0366217,25.0596835 4.23400004,25.2874299 4.48169423,25.4837659 C4.72938841,25.680102 5.00029986,25.8528751 5.2944367,26.0020906 C5.58857354,26.151306 5.8904463,26.2887391 6.20006403,26.4143942 L8.3596369,27.3568026 C8.79310172,27.5452852 9.20333906,27.7612516 9.59036122,28.0047084 C9.97738338,28.2481651 10.3102174,28.5308848 10.5888734,28.8528759 C10.8675294,29.174867 11.0881287,29.5518266 11.250678,29.9837659 C11.4132273,30.4157053 11.4945007,30.9143914 11.4945007,31.4798392 C11.4945007,32.0924078 11.3745257,32.6657004 11.1345719,33.1997345 C10.8946182,33.7337686 10.5501736,34.2010414 10.1012279,34.601567 C9.65228221,35.0020926 9.11045931,35.3162255 8.47574297,35.5439754 C7.84102662,35.7717252 7.1211762,35.8855984 6.3161701,35.8855984 C5.24798893,35.8855984 4.25722706,35.681412 3.34385476,35.273033 C2.43048246,34.864654 1.64096909,34.3070679 0.975290971,33.6002581 L2.13635165,32.2337659 Z M20.9223135,29.3123 L20.2024558,26.956279 C19.9237999,26.0924004 19.6606288,25.2324613 19.4129346,24.3764361 C19.1652404,23.5204109 18.9175499,22.6447652 18.6698557,21.7494728 L18.5769709,21.7494728 C18.3447576,22.6447652 18.1048074,23.5204109 17.8571133,24.3764361 C17.6094191,25.2324613 17.346248,26.0924004 17.067592,26.956279 L16.3477344,29.3123 L20.9223135,29.3123 Z M21.4099589,30.890834 L15.8600889,30.890834 L14.3971524,35.6028759 L12.4233493,35.6028759 L17.5784587,20.1473785 L19.7612528,20.1473785 L24.9163622,35.6028759 L22.8496742,35.6028759 L21.4099589,30.890834 Z M27.0294926,20.1473785 L35.8071114,20.1473785 L35.8071114,21.7965932 L28.9568534,21.7965932 L28.9568534,27.0269597 L34.7621568,27.0269597 L34.7621568,28.6761743 L28.9568534,28.6761743 L28.9568534,35.6028759 L27.0294926,35.6028759 L27.0294926,20.1473785 Z M38.4543297,20.1473785 L47.2319485,20.1473785 L47.2319485,21.7965932 L40.3816905,21.7965932 L40.3816905,26.6499963 L46.1637727,26.6499963 L46.1637727,28.3227712 L40.3816905,28.3227712 L40.3816905,33.930101 L47.4641606,33.930101 L47.4641606,35.6028759 L38.4543297,35.6028759 L38.4543297,20.1473785 Z M53.8035519,21.7965932 L49.2057516,21.7965932 L49.2057516,20.1473785 L60.3519342,20.1473785 L60.3519342,21.7965932 L55.7541339,21.7965932 L55.7541339,35.6028759 L53.8035519,35.6028759 L53.8035519,21.7965932 Z M65.5070436,29.6185827 L60.9324645,20.1473785 L62.9991525,20.1473785 L64.9729557,24.5060173 C65.2206499,25.0714651 65.4606,25.6290512 65.6928133,26.1787921 C65.9250266,26.7285331 66.1727171,27.2939725 66.4358921,27.8751272 L66.528777,27.8751272 C66.7919521,27.2939725 67.0551232,26.7285331 67.3182983,26.1787921 C67.5814733,25.6290512 67.8291638,25.0714651 68.0613771,24.5060173 L70.011959,20.1473785 L72.0322046,20.1473785 L67.4576255,29.6185827 L67.4576255,35.6028759 L65.5070436,35.6028759 L65.5070436,29.6185827 Z" id="SAFETY" fill="#4A4A4A"></path>
            </g>
        </g>
    </g>
</svg>